<svg width="16" height="16" viewBox="0 0 16 16" fill="none" xmlns="http://www.w3.org/2000/svg">
<rect x="2" y="5.15524" width="12" height="7.84479" rx="0.960931" stroke="#8951FF" stroke-width="1.3" stroke-linecap="round" stroke-linejoin="round"/>
<path fill-rule="evenodd" clip-rule="evenodd" d="M2 6.11617C2 5.58546 2.43022 5.15524 2.96093 5.15524H13.0391C13.5698 5.15524 14 5.58546 14 6.11617V6.97257C14 7.40913 13.7057 7.78929 13.2784 7.87918C12.2611 8.09322 10.2913 8.43858 8.17143 8.43858C6.01602 8.43858 3.84683 8.08153 2.74447 7.86852C2.3062 7.78382 2 7.39774 2 6.95135V6.11617Z" stroke="#8951FF" stroke-width="1.3" stroke-linecap="round" stroke-linejoin="round"/>
<path d="M10.3996 5.37858V3.96093C10.3996 3.43022 9.96939 3 9.43868 3L6.56054 3C6.02983 3 5.59961 3.43022 5.59961 3.96093V5.37858" stroke="#8951FF" stroke-width="1.3" stroke-linejoin="round"/>
</svg>
