<svg width="14" height="14" viewBox="0 0 14 14" fill="none" xmlns="http://www.w3.org/2000/svg">
<g clip-path="url(#clip0_65_601)">
<rect x="6.35507" y="0.110001" width="1.08221" height="1.80368" rx="0.541104" fill="#8951FF" stroke="#8951FF" stroke-width="0.18"/>
<rect x="1.84589" y="2.00388" width="1.08221" height="1.80368" rx="0.541104" transform="rotate(-45 1.84589 2.00388)" fill="#8951FF" stroke="#8951FF" stroke-width="0.18"/>
<rect x="11.2378" y="1.28239" width="1.08221" height="1.80368" rx="0.541104" transform="rotate(45 11.2378 1.28239)" fill="#8951FF" stroke="#8951FF" stroke-width="0.18"/>
<rect x="11.7661" y="6.15231" width="1.08221" height="1.80368" rx="0.541104" transform="rotate(-90 11.7661 6.15231)" fill="#8951FF" stroke="#8951FF" stroke-width="0.18"/>
<rect x="0.429993" y="6.15231" width="1.08221" height="1.80368" rx="0.541104" transform="rotate(-90 0.429993 6.15231)" fill="#8951FF" stroke="#8951FF" stroke-width="0.18"/>
<path d="M9.70503 3.31876C9.21621 2.92248 8.64379 2.63876 8.02956 2.4883C7.41532 2.33785 6.77476 2.32445 6.1546 2.44909C5.32885 2.6135 4.57126 3.01599 3.97794 3.60548C3.38462 4.19498 2.98232 4.94491 2.82209 5.76013C2.70508 6.37138 2.72634 7.00054 2.88436 7.60275C3.04238 8.20497 3.33327 8.76539 3.73627 9.24406C4.11028 9.66007 4.32466 10.1921 4.34218 10.7476V12.3193C4.34218 12.7362 4.51018 13.136 4.8092 13.4307C5.10823 13.7255 5.5138 13.891 5.93669 13.891H8.06269C8.48558 13.891 8.89115 13.7255 9.19018 13.4307C9.48921 13.136 9.6572 12.7362 9.6572 12.3193V10.8472C9.67504 10.2338 9.90366 9.64454 10.3056 9.17595C11.0099 8.31717 11.3419 7.2191 11.2295 6.12038C11.117 5.02166 10.5692 4.01109 9.70503 3.30829V3.31876ZM8.5942 12.3193C8.5942 12.4583 8.5382 12.5915 8.43852 12.6898C8.33885 12.788 8.20366 12.8432 8.06269 12.8432H5.93669C5.79573 12.8432 5.66054 12.788 5.56086 12.6898C5.46118 12.5915 5.40519 12.4583 5.40519 12.3193V11.7954H8.5942V12.3193ZM9.4818 8.52632C8.94738 9.15112 8.63558 9.93143 8.5942 10.7476H7.53119V9.17595C7.53119 9.037 7.47519 8.90375 7.37552 8.8055C7.27584 8.70725 7.14065 8.65205 6.99969 8.65205C6.85873 8.65205 6.72354 8.70725 6.62386 8.8055C6.52419 8.90375 6.46819 9.037 6.46819 9.17595V10.7476H5.40519C5.39116 9.94509 5.08998 9.17321 4.55478 8.56823C4.20168 8.1512 3.96423 7.6511 3.86559 7.11669C3.76696 6.58227 3.8105 6.03178 3.99197 5.51889C4.17345 5.006 4.48666 4.54822 4.90107 4.19018C5.31548 3.83214 5.81695 3.58606 6.35657 3.47593C6.82034 3.38181 7.29954 3.39067 7.7594 3.50185C8.21926 3.61304 8.64823 3.82376 9.01517 4.11873C9.38211 4.4137 9.6778 4.78551 9.88079 5.20717C10.0838 5.62882 10.189 6.08974 10.1887 6.55646C10.1926 7.27413 9.94266 7.97071 9.4818 8.52632Z" fill="#8951FF" stroke="#8951FF" stroke-width="0.18"/>
</g>
<defs>
<clipPath id="clip0_65_601">
<rect width="14" height="14" fill="white"/>
</clipPath>
</defs>
</svg>