<svg width="16" height="16" viewBox="0 0 16 16" fill="none" xmlns="http://www.w3.org/2000/svg">
<path d="M12.9 2.4H11.5V1.7C11.5 1.51435 11.4263 1.3363 11.295 1.20503C11.1637 1.07375 10.9857 1 10.8 1C10.6143 1 10.4363 1.07375 10.305 1.20503C10.1737 1.3363 10.1 1.51435 10.1 1.7V2.4H5.9V1.7C5.9 1.51435 5.82625 1.3363 5.69497 1.20503C5.5637 1.07375 5.38565 1 5.2 1C5.01435 1 4.8363 1.07375 4.70503 1.20503C4.57375 1.3363 4.5 1.51435 4.5 1.7V2.4H3.1C2.54305 2.4 2.0089 2.62125 1.61508 3.01508C1.22125 3.4089 1 3.94305 1 4.5V12.9C1 13.457 1.22125 13.9911 1.61508 14.3849C2.0089 14.7788 2.54305 15 3.1 15H12.9C13.457 15 13.9911 14.7788 14.3849 14.3849C14.7788 13.9911 15 13.457 15 12.9V4.5C15 3.94305 14.7788 3.4089 14.3849 3.01508C13.9911 2.62125 13.457 2.4 12.9 2.4ZM13.6 12.9C13.6 13.0857 13.5262 13.2637 13.395 13.395C13.2637 13.5262 13.0857 13.6 12.9 13.6H3.1C2.91435 13.6 2.7363 13.5262 2.60503 13.395C2.47375 13.2637 2.4 13.0857 2.4 12.9V8H13.6V12.9ZM13.6 6.6H2.4V4.5C2.4 4.31435 2.47375 4.1363 2.60503 4.00503C2.7363 3.87375 2.91435 3.8 3.1 3.8H4.5V4.5C4.5 4.68565 4.57375 4.8637 4.70503 4.99497C4.8363 5.12625 5.01435 5.2 5.2 5.2C5.38565 5.2 5.5637 5.12625 5.69497 4.99497C5.82625 4.8637 5.9 4.68565 5.9 4.5V3.8H10.1V4.5C10.1 4.68565 10.1737 4.8637 10.305 4.99497C10.4363 5.12625 10.6143 5.2 10.8 5.2C10.9857 5.2 11.1637 5.12625 11.295 4.99497C11.4263 4.8637 11.5 4.68565 11.5 4.5V3.8H12.9C13.0857 3.8 13.2637 3.87375 13.395 4.00503C13.5262 4.1363 13.6 4.31435 13.6 4.5V6.6Z" fill="#717B9E"/>
</svg>
