<svg width="38" height="38" viewBox="0 0 38 38" fill="none" xmlns="http://www.w3.org/2000/svg">
<rect width="38" height="38" rx="19" fill="#FEFBEF"/>
<g clip-path="url(#clip0_5624_38876)">
<path d="M27.6246 17.1188V17.1188L19.2087 13.9867L19.2087 13.9867L19.2084 13.9866C19.0743 13.9378 18.9257 13.9378 18.7916 13.9866L18.7916 13.9866L18.7913 13.9867L10.3082 17.1438C10.3081 17.1438 10.3081 17.1438 10.308 17.1439C10.0934 17.2225 9.95 17.4167 9.95 17.6358C9.95 17.855 10.0939 18.0492 10.3081 18.1278C10.3081 18.1278 10.3081 18.1278 10.3081 18.1278L13.3619 19.2631V21.757C13.3619 22.0374 13.4499 22.3714 13.7433 22.6971C14.0358 23.0219 14.5297 23.3358 15.3366 23.5831L15.3366 23.5831L15.3379 23.5835C16.5262 23.9111 17.761 24.0679 19 24.0484C20.2913 24.0483 21.694 23.9017 22.7758 23.5461C23.3166 23.3683 23.7806 23.1371 24.1103 22.843C24.441 22.548 24.6377 22.1882 24.6377 21.757V19.2633L25.7054 18.871V20.6786C25.6955 20.8255 25.751 20.9695 25.8585 21.0759C25.9661 21.1828 26.115 21.2428 26.2704 21.2428C26.4258 21.2428 26.5752 21.1828 26.6825 21.0758C26.7894 20.9691 26.8453 20.8256 26.8354 20.6782V18.4454L27.6918 18.1274C27.6919 18.1274 27.6919 18.1274 27.6919 18.1274C27.9066 18.0488 28.05 17.8546 28.05 17.6354C28.05 17.4162 27.9061 17.222 27.6919 17.1434L27.6246 17.1188ZM25.9415 17.6301L19.0004 20.2325L12.0467 17.6348L19.0004 15.0479L25.9415 17.6301ZM23.5066 21.7568V21.7574C23.5066 21.8868 23.4093 22.0316 23.1977 22.1789C22.9884 22.3244 22.6787 22.4641 22.2814 22.5854C21.4874 22.8279 20.3535 22.9943 19.0004 22.9943C17.6473 22.9943 16.5134 22.829 15.7194 22.5871C15.3221 22.4661 15.0124 22.3266 14.8032 22.1808C14.5917 22.0335 14.4943 21.888 14.4943 21.7574V19.6844L18.8031 21.2829C18.8031 21.2829 18.8031 21.2829 18.8032 21.2829C18.937 21.3331 19.0864 21.3331 19.2206 21.283C19.2206 21.283 19.2207 21.283 19.2207 21.2829L23.5288 19.6847L23.5066 21.7568Z" fill="#121224" stroke="#121224" stroke-width="0.1"/>
</g>
<defs>
<clipPath id="clip0_5624_38876">
<rect width="18" height="18" fill="white" transform="translate(10 10)"/>
</clipPath>
</defs>
</svg>