<svg width="38" height="38" viewBox="0 0 38 38" fill="none" xmlns="http://www.w3.org/2000/svg">
<rect width="38" height="38" rx="19" fill="#FEFBEF"/>
<path d="M22.6364 25.0003V23.5559C22.6364 22.7897 22.3299 22.0549 21.7843 21.5131C21.2388 20.9714 20.4988 20.667 19.7273 20.667H13.9091C13.1376 20.667 12.3976 20.9714 11.8521 21.5131C11.3065 22.0549 11 22.7897 11 23.5559V25.0003" stroke="#121224" stroke-linecap="round" stroke-linejoin="round"/>
<path d="M16.8153 17.7778C18.422 17.7778 19.7244 16.4844 19.7244 14.8889C19.7244 13.2934 18.422 12 16.8153 12C15.2087 12 13.9062 13.2934 13.9062 14.8889C13.9062 16.4844 15.2087 17.7778 16.8153 17.7778Z" stroke="#121224" stroke-linecap="round" stroke-linejoin="round"/>
<path d="M27.0021 25.0002V23.5557C27.0016 22.9157 26.7871 22.2939 26.3922 21.788C25.9973 21.2821 25.4444 20.9208 24.8203 20.7607" stroke="#121224" stroke-linecap="round" stroke-linejoin="round"/>
<path d="M21.9062 12.0938C22.532 12.2529 23.0866 12.6143 23.4827 13.121C23.8788 13.6277 24.0938 14.2509 24.0938 14.8924C24.0938 15.5338 23.8788 16.157 23.4827 16.6637C23.0866 17.1705 22.532 17.5319 21.9062 17.691" stroke="#121224" stroke-linecap="round" stroke-linejoin="round"/>
</svg>