<svg width="38" height="38" viewBox="0 0 38 38" fill="none" xmlns="http://www.w3.org/2000/svg">
<rect width="38" height="38" rx="19" fill="#F7F8FF"/>
<rect x="9.5" y="10.5" width="18" height="18" rx="1.5" stroke="black"/>
<path d="M22.7297 30.2689L22.7293 24.9522C22.7293 24.8336 22.8414 24.747 22.9561 24.7769L25.3055 25.3897C25.3351 25.3974 25.3662 25.3975 25.3958 25.39L27.8183 24.775C27.9327 24.746 28.044 24.8325 28.044 24.9506L28.044 30.2759C28.044 30.431 27.8619 30.5144 27.7445 30.4131L25.4706 28.451C25.4019 28.3917 25.3 28.3924 25.2321 28.4526L23.031 30.4044C22.9141 30.5081 22.7297 30.4251 22.7297 30.2689Z" fill="white" stroke="#121224"/>
<path d="M29.8071 21.2969C29.8071 23.7168 27.8454 25.6785 25.4255 25.6785C23.0056 25.6785 21.0439 23.7168 21.0439 21.2969C21.0439 18.877 23.0056 16.9153 25.4255 16.9153C27.8454 16.9153 29.8071 18.877 29.8071 21.2969Z" fill="#F7F8FF" stroke="#121224"/>
<path d="M12 15H21" stroke="black" stroke-linecap="round"/>
<path d="M12 18H18" stroke="black" stroke-linecap="round"/>
<path d="M12 20H15" stroke="black" stroke-linecap="round"/>
</svg>
