<svg width="38" height="38" viewBox="0 0 38 38" fill="none" xmlns="http://www.w3.org/2000/svg">
<rect width="38" height="38" rx="19" fill="#FEFBEF"/>
<path d="M28.4987 28.0542H27.0798V15.2848C27.0943 15.0719 26.9615 14.8767 26.7581 14.8119L22.3505 13.3647V11.4729C22.3505 11.3475 22.3007 11.2273 22.2119 11.1386C22.1234 11.0498 22.003 11 21.8776 11H13.3647C13.1036 11 12.8918 11.2118 12.8918 11.4729V28.054H11.4729C11.2118 28.054 11 28.2658 11 28.5271C11 28.7882 11.2118 29 11.4729 29H28.4987C28.7598 29 28.9716 28.7882 28.9716 28.5271C28.9716 28.2658 28.7598 28.0542 28.4987 28.0542ZM26.134 15.6252V28.0542H22.3504V14.358L26.134 15.6252ZM17.1481 28.0542V26.1625H18.0939V28.0543L17.1481 28.0542ZM18.5669 25.2166H16.6752C16.414 25.2166 16.2022 25.4284 16.2022 25.6895V28.0542H13.8375V11.9743H21.4045L21.4047 28.0542H19.04V25.6611C19.0248 25.411 18.8174 25.2161 18.5669 25.2166ZM17.1292 21.9519C17.1293 22.2059 16.9289 22.4147 16.6752 22.4248H15.7293C15.4682 22.4248 15.2564 22.2132 15.2564 21.9519C15.2564 21.6908 15.4682 21.479 15.7293 21.479H16.6752C16.9289 21.4892 17.1293 21.6979 17.1292 21.9519ZM19.5696 22.4248H18.5669C18.3058 22.4248 18.094 22.2132 18.094 21.9519C18.094 21.6908 18.3058 21.479 18.5669 21.479H19.5128C19.7739 21.479 19.9857 21.6908 19.9857 21.9519C19.9857 22.2132 19.7739 22.4248 19.5128 22.4248H19.5696ZM17.1292 18.2143C17.1293 18.4683 16.9289 18.6771 16.6752 18.6872H15.7293C15.4682 18.6872 15.2564 18.4756 15.2564 18.2143C15.2564 17.953 15.4682 17.7414 15.7293 17.7414H16.6752C16.9289 17.7515 17.1293 17.9603 17.1292 18.2143ZM18.075 18.2143C18.0748 18.0855 18.1274 17.9623 18.2201 17.873C18.313 17.7838 18.4382 17.7363 18.5668 17.7414H19.5128C19.7739 17.7414 19.9857 17.953 19.9857 18.2143C19.9857 18.4756 19.7739 18.6872 19.5128 18.6872H18.5668C18.3132 18.6771 18.1127 18.4683 18.1129 18.2143L18.075 18.2143ZM17.1292 14.3391C17.1293 14.593 16.9289 14.8018 16.6752 14.812H15.7293C15.4682 14.812 15.2564 14.6002 15.2564 14.3391C15.2564 14.0778 15.4682 13.8661 15.7293 13.8661H16.6752C16.9289 13.8763 17.1293 14.0851 17.1292 14.3391ZM18.075 14.3391C18.0748 14.2103 18.1274 14.0871 18.2201 13.9978C18.313 13.9084 18.4382 13.8609 18.5668 13.8661H19.5128C19.7739 13.8661 19.9857 14.0778 19.9857 14.3391C19.9857 14.6002 19.7739 14.812 19.5128 14.812H18.5668C18.3132 14.8018 18.1127 14.593 18.1129 14.3391L18.075 14.3391Z" fill="#121224"/>
</svg>