<svg width="38" height="38" viewBox="0 0 38 38" fill="none" xmlns="http://www.w3.org/2000/svg">
<rect width="38" height="38" rx="19" fill="#FEFBEF"/>
<path d="M27.0073 18.2621V18.9986C27.0063 20.7249 26.4468 22.4047 25.4124 23.7875C24.378 25.1702 22.924 26.1817 21.2673 26.6712C19.6106 27.1607 17.84 27.1019 16.2194 26.5036C14.5989 25.9053 13.2153 24.7996 12.275 23.3513C11.3347 21.9031 10.8881 20.1899 11.0017 18.4672C11.1154 16.7446 11.7833 15.1049 12.9057 13.7925C14.0282 12.4802 15.5451 11.5656 17.2302 11.1851C18.9154 10.8047 20.6784 10.9787 22.2565 11.6814" stroke="#121224" stroke-linecap="round" stroke-linejoin="round"/>
<path d="M27.0086 12.5938L18.9972 20.6075L16.5938 18.2058" stroke="#121224" stroke-linecap="round" stroke-linejoin="round"/>
</svg>