<svg width="38" height="38" viewBox="0 0 38 38" fill="none" xmlns="http://www.w3.org/2000/svg">
<rect width="38" height="38" rx="19" fill="#F2FCFF"/>
<path d="M24.5 15.7783H13.3889C12.6218 15.7783 12 16.4001 12 17.1672V24.1116C12 24.8787 12.6218 25.5005 13.3889 25.5005H24.5C25.267 25.5005 25.8889 24.8787 25.8889 24.1116V17.1672C25.8889 16.4001 25.267 15.7783 24.5 15.7783Z" stroke="black" stroke-linecap="round" stroke-linejoin="round"/>
<path d="M21.7225 25.5V14.3889C21.7225 14.0205 21.5762 13.6673 21.3157 13.4068C21.0553 13.1463 20.702 13 20.3336 13H17.5559C17.1875 13 16.8343 13.1463 16.5738 13.4068C16.3133 13.6673 16.167 14.0205 16.167 14.3889V25.5" stroke="black" stroke-linecap="round" stroke-linejoin="round"/>
</svg>