<?xml version="1.0" encoding="UTF-8"?>
<svg id="a" xmlns="http://www.w3.org/2000/svg" viewBox="0 0 38 38">
  <path d="M19,0h0c10.49341,0,19,8.50659,19,19h0c0,10.49341-8.50659,19-19,19h0C8.50659,38,0,29.49341,0,19H0C0,8.50659,8.50659,0,19,0Z" fill="#f7f8ff"/>
  <g>
    <path d="M22.71446,26.07789v-3.93501c1.59751-1.48607,3.06278-3.35461,3.91947-5.63994,.5797-1.54783,.82519-3.13641,.7292-4.72187-.03867-.63529-.50927-1.10589-1.14456-1.14456-1.58512-.09564-3.17369,.14985-4.72153,.72955-2.28532,.85669-4.15382,2.32192-5.63985,3.91947l-3.93475,.00035c-1.22708-.00069-2.32192,.82277-2.66166,2.00082l-.60698,2.09853c-.07527,.26171-.03522,.54345,.11049,.7734,.03763,.05973,.08148,.11463,.13086,.164,.13983,.13983,.32144,.23444,.52032,.2662l2.58514,.41764c-.22201,.45739-.39839,.85233-.51838,1.13951-.2189,.5255-.13017,1.07551,.23098,1.43666l2.70448,2.70448c.36149,.36149,.9122,.44954,1.43735,.23029,.28683-.11989,.68143-.2962,1.13843-.51799l.41734,2.58614c.03246,.19818,.12706,.37979,.26689,.51963,.04903,.04903,.10427,.09322,.164,.13086,.22995,.1457,.51169,.18575,.77305,.11014l2.09888-.60663c1.17771-.34009,2.00117-1.43493,2.00082-2.66166h.00001Zm-13.10012-6.41438l.60732-2.09957c.21683-.75268,.91634-1.27818,1.70079-1.27818l3.07016-.0003c-1.08021,1.32595-1.91377,2.67008-2.51423,3.78672l-2.86403-.40867h-.00001Zm5.77735,5.74697c-.07769,.0328-.12568,.02624-.12602,.02866l-2.69826-2.69688c-.0038-.00794-.00967-.05662,.0221-.13396,.7696-1.842,3.71749-8.01537,9.32877-10.11805,1.38901-.52101,2.81151-.74129,4.24713-.63633,.08563,1.41629-.13465,2.83879-.65566,4.22779-2.10337,5.61059-8.27605,8.55917-10.11806,9.32877Zm5.04366,2.36853l-2.03742,.64599-.46909-2.90382c1.11638-.60038,2.46007-1.43385,3.78572-2.51385v3.07055c-.00035,.7841-.52584,1.48361-1.27921,1.70113Z" fill="#121224"/>
    <circle cx="22.50492" cy="15.49515" r="1.25" fill="#121224"/>
  </g>
</svg>