<svg width="14" height="15" viewBox="0 0 14 15" fill="none" xmlns="http://www.w3.org/2000/svg">
<path d="M9.97756 2.63994C10.1012 2.51632 10.248 2.41825 10.4095 2.35134C10.571 2.28444 10.7441 2.25 10.919 2.25C11.0938 2.25 11.2669 2.28444 11.4285 2.35134C11.59 2.41825 11.7368 2.51632 11.8604 2.63994C11.984 2.76357 12.0821 2.91034 12.149 3.07187C12.2159 3.23339 12.2503 3.40652 12.2503 3.58135C12.2503 3.75619 12.2159 3.92931 12.149 4.09084C12.0821 4.25237 11.984 4.39914 11.8604 4.52276L5.50587 10.8773L2.91699 11.5833L3.62305 8.99446L9.97756 2.63994Z" stroke="#8951FF" stroke-linecap="round" stroke-linejoin="round"/>
<path d="M1.75 13.3333H11.6667" stroke="#8951FF" stroke-linecap="round"/>
</svg>
