<svg width="20" height="20" viewBox="0 0 20 20" fill="none" xmlns="http://www.w3.org/2000/svg">
<path d="M17.417 1.66675H2.58366C2.34054 1.66675 2.10739 1.76333 1.93548 1.93523C1.76357 2.10714 1.66699 2.3403 1.66699 2.58341V17.4167C1.66699 17.5371 1.6907 17.6563 1.73677 17.7675C1.78284 17.8788 1.85036 17.9798 1.93548 18.0649C2.0206 18.1501 2.12165 18.2176 2.23287 18.2636C2.34408 18.3097 2.46328 18.3334 2.58366 18.3334H10.567V11.8751H8.40033V9.37508H10.567V7.50008C10.5221 7.05988 10.5741 6.61519 10.7193 6.1972C10.8644 5.7792 11.0993 5.39804 11.4074 5.08042C11.7155 4.76281 12.0893 4.51645 12.5027 4.35861C12.9161 4.20078 13.359 4.13529 13.8003 4.16675C14.4489 4.16276 15.0972 4.19615 15.742 4.26675V6.51675H14.417C13.367 6.51675 13.167 7.01675 13.167 7.74175V9.35008H15.667L15.342 11.8501H13.167V18.3334H17.417C17.5374 18.3334 17.6566 18.3097 17.7678 18.2636C17.879 18.2176 17.9801 18.1501 18.0652 18.0649C18.1503 17.9798 18.2178 17.8788 18.2639 17.7675C18.3099 17.6563 18.3337 17.5371 18.3337 17.4167V2.58341C18.3337 2.46304 18.3099 2.34384 18.2639 2.23262C18.2178 2.12141 18.1503 2.02035 18.0652 1.93523C17.9801 1.85011 17.879 1.78259 17.7678 1.73653C17.6566 1.69046 17.5374 1.66675 17.417 1.66675V1.66675Z" fill="#8292B4"/>
</svg>
