<svg width="18" height="18" viewBox="0 0 18 18" fill="none" xmlns="http://www.w3.org/2000/svg">
<g clip-path="url(#clip0_1:5066)">
<path d="M1.12478 1.22497C-0.289717 2.69422 -0.000216767 4.25497 -0.000216767 8.99646C-0.000216767 12.934 -0.687217 16.8812 2.90828 17.8105C4.03103 18.0992 13.979 18.0992 15.1003 17.809C16.5973 17.4227 17.8153 16.2085 17.9818 14.0912C18.005 13.7957 18.005 4.20247 17.981 3.90097C17.804 1.64572 16.4158 0.345968 14.5865 0.0827179C14.1673 0.0219679 14.0833 0.00396789 11.9323 0.00021789C4.30253 0.00396789 2.63003 -0.335782 1.12478 1.22497V1.22497Z" fill="#8292B4"/>
<path d="M8.99836 2.35431C6.27511 2.35431 3.68911 2.11206 2.70136 4.64706C2.29336 5.69406 2.35261 7.05382 2.35261 9.00082C2.35261 10.7093 2.29786 12.3151 2.70136 13.3538C3.68686 15.8903 6.29386 15.6473 8.99686 15.6473C11.6046 15.6473 14.2934 15.9188 15.2931 13.3538C15.7019 12.2963 15.6419 10.9568 15.6419 9.00082C15.6419 6.40432 15.7851 4.72806 14.5259 3.46956C13.2509 2.19456 11.5266 2.35431 8.99536 2.35431H8.99836ZM8.40286 3.55206C14.0834 3.54306 14.8064 2.91157 14.4074 11.6843C14.2656 14.7871 11.9031 14.4466 8.99911 14.4466C3.70411 14.4466 3.55186 14.2951 3.55186 8.99782C3.55186 3.63906 3.97186 3.55506 8.40286 3.55056V3.55206ZM12.5459 4.65531C12.1056 4.65531 11.7486 5.01231 11.7486 5.45256C11.7486 5.89281 12.1056 6.24981 12.5459 6.24981C12.9861 6.24981 13.3431 5.89281 13.3431 5.45256C13.3431 5.01231 12.9861 4.65531 12.5459 4.65531V4.65531ZM8.99836 5.58756C7.11361 5.58756 5.58586 7.11607 5.58586 9.00082C5.58586 10.8856 7.11361 12.4133 8.99836 12.4133C10.8831 12.4133 12.4101 10.8856 12.4101 9.00082C12.4101 7.11607 10.8831 5.58756 8.99836 5.58756V5.58756ZM8.99836 6.78531C11.9271 6.78531 11.9309 11.2163 8.99836 11.2163C6.07036 11.2163 6.06586 6.78531 8.99836 6.78531Z" fill="white"/>
</g>
<defs>
<clipPath id="clip0_1:5066">
<rect width="18" height="18" fill="white"/>
</clipPath>
</defs>
</svg>
