<svg width="19" height="19" viewBox="0 0 19 19" fill="none" xmlns="http://www.w3.org/2000/svg">
<path fill-rule="evenodd" clip-rule="evenodd" d="M3.4 2C2.6268 2 2 2.6268 2 3.4V15.6C2 16.3732 2.6268 17 3.4 17H15.6C16.3732 17 17 16.3732 17 15.6V3.4C17 2.6268 16.3732 2 15.6 2H3.4ZM14.2506 13.5639L15.2383 14.9992H11.6468L8.90528 11.0162L5.48136 14.9994H4L8.24555 10.0577L4.07596 4H7.66758L7.9407 4.39677L10.2397 7.73676L12.6362 4.94744L13.4546 4H14.9357L10.8996 8.69554L14.2506 13.5639ZM10.7446 8.87585L14.8011 14.7693H14.7976L14.0588 13.6956L10.7427 8.87806L10.7446 8.87585ZM10.2177 8.11517L10.2187 8.11663L10.2201 8.11498L10.2205 8.11449L10.2195 8.11303L10.2177 8.11517ZM7.74889 4.52856L10.0829 7.91932L10.0847 7.91717L7.54672 4.2299H4.51325L4.51424 4.23134H7.5443L7.74889 4.52856ZM5.81609 4.9175L8.86097 9.34138L8.86289 9.33915L5.8195 4.9175H5.81609ZM9.38571 10.1036L9.38601 10.104L9.38738 10.1024L8.9972 9.53571L8.99618 9.5369L9.38587 10.1029L9.38551 10.1033L9.38571 10.1036ZM9.52268 10.2977L9.52082 10.2999L12.1257 14.0845H13.4934L13.4924 14.0831H12.1281L9.52268 10.2977ZM9.46725 8.63579L9.46675 8.63637L10.1266 9.59469L10.127 9.59417L13.0584 13.8532H12.249L9.5775 9.97178L9.18734 9.40511L6.25585 5.14597H7.06531L9.46725 8.63579ZM14.4337 4.23134L14.4349 4.2299H13.5598L12.8106 5.09726L10.3745 7.93261L10.3755 7.93407L12.8116 5.0987L13.5608 4.23134H14.4337ZM5.3747 14.7695L8.76997 10.8196L8.77039 10.8202L5.37581 14.7695H5.3747Z" fill="#8292B4"/>
</svg>